<mxfile host="app.diagrams.net" modified="2024-05-16T17:39:47.306Z" agent="Mozilla/5.0 (Macintosh; Intel Mac OS X 10_15_7) AppleWebKit/537.36 (KHTML, like Gecko) Chrome/124.0.0.0 Safari/537.36" etag="KgNt98du6IKkcW5RkalU" version="24.3.1" type="github">
  <diagram name="Page-1" id="mtelrleWY2oQDKrwIG9l">
    <mxGraphModel dx="1025" dy="602" grid="1" gridSize="10" guides="1" tooltips="1" connect="1" arrows="1" fold="1" page="1" pageScale="1" pageWidth="850" pageHeight="1100" math="0" shadow="0">
      <root>
        <mxCell id="0" />
        <mxCell id="1" parent="0" />
        <mxCell id="mg9c9JEAgDVn0sBX32om-2" style="edgeStyle=orthogonalEdgeStyle;rounded=0;orthogonalLoop=1;jettySize=auto;html=1;" edge="1" parent="1" source="o60O99Jp81AWz7xai8v7-1" target="mg9c9JEAgDVn0sBX32om-1">
          <mxGeometry relative="1" as="geometry" />
        </mxCell>
        <mxCell id="o60O99Jp81AWz7xai8v7-1" value="Medusa POS React" style="rounded=0;whiteSpace=wrap;html=1;" parent="1" vertex="1">
          <mxGeometry x="320" y="320" width="170" height="120" as="geometry" />
        </mxCell>
        <mxCell id="mg9c9JEAgDVn0sBX32om-1" value="Module1" style="rounded=0;whiteSpace=wrap;html=1;" vertex="1" parent="1">
          <mxGeometry x="320" y="500" width="170" height="120" as="geometry" />
        </mxCell>
      </root>
    </mxGraphModel>
  </diagram>
</mxfile>
